<svg xmlns="http://www.w3.org/2000/svg" width="125" height="125" viewBox="0 0 125 125"><defs><style>.a{fill:#1da1f2;}.b{fill:#fff;}</style></defs><g transform="translate(1 0.319)"><g transform="translate(-1)"><circle class="a" cx="62.5" cy="62.5" r="62.5" transform="translate(0 -0.319)"/></g><g transform="translate(28.019 35.766)"><path class="b" d="M112.721,174.161c27.707,0,42.856-22.959,42.856-42.856,0-.656,0-1.312-.031-1.937a30.859,30.859,0,0,0,7.528-7.809,30.571,30.571,0,0,1-8.652,2.374,15.054,15.054,0,0,0,6.622-8.34,30.5,30.5,0,0,1-9.558,3.655,15.071,15.071,0,0,0-26.051,10.308,13.8,13.8,0,0,0,.406,3.436,42.729,42.729,0,0,1-31.049-15.743,15.055,15.055,0,0,0,4.685,20.085,14.8,14.8,0,0,1-6.81-1.874v.187a15.079,15.079,0,0,0,12.088,14.775,15.014,15.014,0,0,1-3.967.531,14.381,14.381,0,0,1-2.842-.281A15.039,15.039,0,0,0,112,161.136a30.278,30.278,0,0,1-18.711,6.435,27.385,27.385,0,0,1-3.592-.219,41.965,41.965,0,0,0,23.021,6.81" transform="translate(-89.7 -114.5)"/></g></g></svg>